<mxfile host="app.diagrams.net" modified="2024-04-07T17:48:04.803Z" agent="Mozilla/5.0 (Windows NT 10.0; Win64; x64) AppleWebKit/537.36 (KHTML, like Gecko) Chrome/123.0.0.0 Safari/537.36" etag="IvfqEoyBCxl5D_IcWhsq" version="24.2.2" type="device">
  <diagram name="Página-1" id="2qAOr6PE7SJM_71RUO1P">
    <mxGraphModel dx="2261" dy="-389" grid="1" gridSize="10" guides="1" tooltips="1" connect="1" arrows="1" fold="1" page="1" pageScale="1" pageWidth="827" pageHeight="1169" math="0" shadow="0">
      <root>
        <mxCell id="0" />
        <mxCell id="1" parent="0" />
        <mxCell id="nSC51Si6mRJJ4zSDb2Nt-289" style="edgeStyle=orthogonalEdgeStyle;rounded=0;orthogonalLoop=1;jettySize=auto;html=1;exitX=1;exitY=0;exitDx=0;exitDy=0;endArrow=oval;endFill=0;fontSize=16;" edge="1" parent="1" source="nSC51Si6mRJJ4zSDb2Nt-298" target="nSC51Si6mRJJ4zSDb2Nt-302">
          <mxGeometry relative="1" as="geometry">
            <Array as="points">
              <mxPoint x="235" y="2049.75" />
            </Array>
          </mxGeometry>
        </mxCell>
        <mxCell id="nSC51Si6mRJJ4zSDb2Nt-290" style="edgeStyle=orthogonalEdgeStyle;rounded=0;orthogonalLoop=1;jettySize=auto;html=1;endArrow=oval;endFill=0;fontSize=16;" edge="1" parent="1" source="nSC51Si6mRJJ4zSDb2Nt-298" target="nSC51Si6mRJJ4zSDb2Nt-300">
          <mxGeometry relative="1" as="geometry" />
        </mxCell>
        <mxCell id="nSC51Si6mRJJ4zSDb2Nt-291" style="edgeStyle=orthogonalEdgeStyle;rounded=0;orthogonalLoop=1;jettySize=auto;html=1;exitX=0;exitY=0;exitDx=0;exitDy=0;endArrow=oval;endFill=0;fontSize=16;" edge="1" parent="1" source="nSC51Si6mRJJ4zSDb2Nt-298" target="nSC51Si6mRJJ4zSDb2Nt-299">
          <mxGeometry relative="1" as="geometry" />
        </mxCell>
        <mxCell id="nSC51Si6mRJJ4zSDb2Nt-292" style="edgeStyle=orthogonalEdgeStyle;rounded=0;orthogonalLoop=1;jettySize=auto;html=1;exitX=0.25;exitY=1;exitDx=0;exitDy=0;endArrow=oval;endFill=0;fontSize=16;" edge="1" parent="1" source="nSC51Si6mRJJ4zSDb2Nt-298" target="nSC51Si6mRJJ4zSDb2Nt-301">
          <mxGeometry relative="1" as="geometry">
            <Array as="points">
              <mxPoint x="120" y="2109.75" />
            </Array>
          </mxGeometry>
        </mxCell>
        <mxCell id="nSC51Si6mRJJ4zSDb2Nt-293" style="edgeStyle=orthogonalEdgeStyle;rounded=0;orthogonalLoop=1;jettySize=auto;html=1;endArrow=oval;endFill=0;fontSize=16;" edge="1" parent="1">
          <mxGeometry relative="1" as="geometry">
            <Array as="points">
              <mxPoint x="125" y="2110" />
              <mxPoint x="125" y="2170" />
            </Array>
            <mxPoint x="135" y="2110" as="sourcePoint" />
            <mxPoint x="115" y="2170.3" as="targetPoint" />
          </mxGeometry>
        </mxCell>
        <mxCell id="nSC51Si6mRJJ4zSDb2Nt-294" style="edgeStyle=orthogonalEdgeStyle;rounded=0;orthogonalLoop=1;jettySize=auto;html=1;exitX=1;exitY=1;exitDx=0;exitDy=0;endArrow=oval;endFill=0;fontSize=16;" edge="1" parent="1" source="nSC51Si6mRJJ4zSDb2Nt-298" target="nSC51Si6mRJJ4zSDb2Nt-304">
          <mxGeometry relative="1" as="geometry">
            <Array as="points">
              <mxPoint x="240" y="2149.75" />
              <mxPoint x="240" y="2149.75" />
            </Array>
          </mxGeometry>
        </mxCell>
        <mxCell id="nSC51Si6mRJJ4zSDb2Nt-295" style="edgeStyle=orthogonalEdgeStyle;rounded=0;orthogonalLoop=1;jettySize=auto;html=1;endArrow=none;endFill=0;fontSize=16;" edge="1" parent="1" source="nSC51Si6mRJJ4zSDb2Nt-298" target="nSC51Si6mRJJ4zSDb2Nt-318">
          <mxGeometry relative="1" as="geometry">
            <Array as="points">
              <mxPoint x="285" y="2080" />
              <mxPoint x="285" y="2080" />
            </Array>
          </mxGeometry>
        </mxCell>
        <mxCell id="nSC51Si6mRJJ4zSDb2Nt-296" value="(0,n)" style="edgeLabel;html=1;align=center;verticalAlign=middle;resizable=0;points=[];" vertex="1" connectable="0" parent="nSC51Si6mRJJ4zSDb2Nt-295">
          <mxGeometry x="-0.0947" y="4" relative="1" as="geometry">
            <mxPoint x="2" y="-16" as="offset" />
          </mxGeometry>
        </mxCell>
        <mxCell id="nSC51Si6mRJJ4zSDb2Nt-297" style="edgeStyle=orthogonalEdgeStyle;rounded=0;orthogonalLoop=1;jettySize=auto;html=1;endArrow=none;endFill=0;fontSize=16;" edge="1" parent="1" source="nSC51Si6mRJJ4zSDb2Nt-298" target="nSC51Si6mRJJ4zSDb2Nt-320">
          <mxGeometry relative="1" as="geometry" />
        </mxCell>
        <mxCell id="nSC51Si6mRJJ4zSDb2Nt-298" value="Cliente" style="rounded=0;whiteSpace=wrap;html=1;fontSize=16;" vertex="1" parent="1">
          <mxGeometry x="120" y="2050" width="120" height="60" as="geometry" />
        </mxCell>
        <mxCell id="nSC51Si6mRJJ4zSDb2Nt-299" value="Endereço" style="text;html=1;align=center;verticalAlign=middle;resizable=0;points=[];autosize=1;strokeColor=none;fillColor=none;fontSize=16;" vertex="1" parent="1">
          <mxGeometry x="75" y="1980" width="90" height="30" as="geometry" />
        </mxCell>
        <mxCell id="nSC51Si6mRJJ4zSDb2Nt-300" value="Codigo" style="text;html=1;align=center;verticalAlign=middle;resizable=0;points=[];autosize=1;strokeColor=none;fillColor=none;fontSize=16;" vertex="1" parent="1">
          <mxGeometry x="145" y="1980" width="70" height="30" as="geometry" />
        </mxCell>
        <mxCell id="nSC51Si6mRJJ4zSDb2Nt-301" value="Desconto" style="text;html=1;align=center;verticalAlign=middle;resizable=0;points=[];autosize=1;strokeColor=none;fillColor=none;fontSize=16;" vertex="1" parent="1">
          <mxGeometry x="-5" y="2065" width="90" height="30" as="geometry" />
        </mxCell>
        <mxCell id="nSC51Si6mRJJ4zSDb2Nt-302" value="Nome" style="text;html=1;align=center;verticalAlign=middle;resizable=0;points=[];autosize=1;strokeColor=none;fillColor=none;fontSize=16;" vertex="1" parent="1">
          <mxGeometry x="210" y="1981.75" width="70" height="30" as="geometry" />
        </mxCell>
        <mxCell id="nSC51Si6mRJJ4zSDb2Nt-303" value="Telefone" style="text;html=1;align=center;verticalAlign=middle;resizable=0;points=[];autosize=1;strokeColor=none;fillColor=none;fontSize=16;" vertex="1" parent="1">
          <mxGeometry x="80" y="2155.25" width="80" height="30" as="geometry" />
        </mxCell>
        <mxCell id="nSC51Si6mRJJ4zSDb2Nt-304" value="endereço_Entrega" style="text;html=1;align=center;verticalAlign=middle;resizable=0;points=[];autosize=1;strokeColor=none;fillColor=none;fontSize=16;" vertex="1" parent="1">
          <mxGeometry x="195" y="2155.25" width="160" height="30" as="geometry" />
        </mxCell>
        <mxCell id="nSC51Si6mRJJ4zSDb2Nt-305" style="edgeStyle=orthogonalEdgeStyle;rounded=0;orthogonalLoop=1;jettySize=auto;html=1;exitX=1;exitY=0;exitDx=0;exitDy=0;endArrow=oval;endFill=1;fontSize=16;" edge="1" parent="1" source="nSC51Si6mRJJ4zSDb2Nt-312" target="nSC51Si6mRJJ4zSDb2Nt-316">
          <mxGeometry relative="1" as="geometry">
            <Array as="points">
              <mxPoint x="670" y="2049.75" />
            </Array>
          </mxGeometry>
        </mxCell>
        <mxCell id="nSC51Si6mRJJ4zSDb2Nt-306" style="edgeStyle=orthogonalEdgeStyle;rounded=0;orthogonalLoop=1;jettySize=auto;html=1;endArrow=oval;endFill=0;fontSize=16;" edge="1" parent="1" source="nSC51Si6mRJJ4zSDb2Nt-312" target="nSC51Si6mRJJ4zSDb2Nt-314">
          <mxGeometry relative="1" as="geometry" />
        </mxCell>
        <mxCell id="nSC51Si6mRJJ4zSDb2Nt-307" style="edgeStyle=orthogonalEdgeStyle;rounded=0;orthogonalLoop=1;jettySize=auto;html=1;exitX=0;exitY=0;exitDx=0;exitDy=0;endArrow=oval;endFill=0;fontSize=16;" edge="1" parent="1" source="nSC51Si6mRJJ4zSDb2Nt-312" target="nSC51Si6mRJJ4zSDb2Nt-313">
          <mxGeometry relative="1" as="geometry" />
        </mxCell>
        <mxCell id="nSC51Si6mRJJ4zSDb2Nt-308" style="edgeStyle=orthogonalEdgeStyle;rounded=0;orthogonalLoop=1;jettySize=auto;html=1;exitX=0.25;exitY=1;exitDx=0;exitDy=0;endArrow=oval;endFill=0;fontSize=16;" edge="1" parent="1" source="nSC51Si6mRJJ4zSDb2Nt-312" target="nSC51Si6mRJJ4zSDb2Nt-315">
          <mxGeometry relative="1" as="geometry">
            <Array as="points">
              <mxPoint x="555" y="2109.75" />
            </Array>
          </mxGeometry>
        </mxCell>
        <mxCell id="nSC51Si6mRJJ4zSDb2Nt-309" style="edgeStyle=orthogonalEdgeStyle;rounded=0;orthogonalLoop=1;jettySize=auto;html=1;exitX=1;exitY=1;exitDx=0;exitDy=0;endArrow=oval;endFill=0;fontSize=16;" edge="1" parent="1" source="nSC51Si6mRJJ4zSDb2Nt-312" target="nSC51Si6mRJJ4zSDb2Nt-317">
          <mxGeometry relative="1" as="geometry">
            <Array as="points">
              <mxPoint x="675" y="2149.75" />
              <mxPoint x="675" y="2149.75" />
            </Array>
          </mxGeometry>
        </mxCell>
        <mxCell id="nSC51Si6mRJJ4zSDb2Nt-310" style="edgeStyle=orthogonalEdgeStyle;rounded=0;orthogonalLoop=1;jettySize=auto;html=1;endArrow=none;endFill=0;fontSize=16;" edge="1" parent="1" source="nSC51Si6mRJJ4zSDb2Nt-312" target="nSC51Si6mRJJ4zSDb2Nt-318">
          <mxGeometry relative="1" as="geometry">
            <mxPoint x="505" y="2080" as="targetPoint" />
          </mxGeometry>
        </mxCell>
        <mxCell id="nSC51Si6mRJJ4zSDb2Nt-311" value="(0,n)" style="edgeLabel;html=1;align=center;verticalAlign=middle;resizable=0;points=[];" vertex="1" connectable="0" parent="nSC51Si6mRJJ4zSDb2Nt-310">
          <mxGeometry y="-3" relative="1" as="geometry">
            <mxPoint y="-17" as="offset" />
          </mxGeometry>
        </mxCell>
        <mxCell id="nSC51Si6mRJJ4zSDb2Nt-312" value="Material" style="rounded=0;whiteSpace=wrap;html=1;fontSize=16;" vertex="1" parent="1">
          <mxGeometry x="555" y="2050" width="120" height="60" as="geometry" />
        </mxCell>
        <mxCell id="nSC51Si6mRJJ4zSDb2Nt-313" value="&lt;div style=&quot;font-size: 16px;&quot;&gt;Descrição&lt;/div&gt;" style="text;html=1;align=center;verticalAlign=middle;resizable=0;points=[];autosize=1;strokeColor=none;fillColor=none;fontSize=16;" vertex="1" parent="1">
          <mxGeometry x="510" y="1980" width="90" height="30" as="geometry" />
        </mxCell>
        <mxCell id="nSC51Si6mRJJ4zSDb2Nt-314" value="Codigo" style="text;html=1;align=center;verticalAlign=middle;resizable=0;points=[];autosize=1;strokeColor=none;fillColor=none;fontSize=16;" vertex="1" parent="1">
          <mxGeometry x="580" y="1980" width="70" height="30" as="geometry" />
        </mxCell>
        <mxCell id="nSC51Si6mRJJ4zSDb2Nt-315" value="Quantidade" style="text;html=1;align=center;verticalAlign=middle;resizable=0;points=[];autosize=1;strokeColor=none;fillColor=none;fontSize=16;" vertex="1" parent="1">
          <mxGeometry x="485" y="2155.25" width="110" height="30" as="geometry" />
        </mxCell>
        <mxCell id="nSC51Si6mRJJ4zSDb2Nt-316" value="Nome" style="text;html=1;align=center;verticalAlign=middle;resizable=0;points=[];autosize=1;strokeColor=none;fillColor=none;fontSize=16;" vertex="1" parent="1">
          <mxGeometry x="645" y="1981.75" width="70" height="30" as="geometry" />
        </mxCell>
        <mxCell id="nSC51Si6mRJJ4zSDb2Nt-317" value="Preço" style="text;html=1;align=center;verticalAlign=middle;resizable=0;points=[];autosize=1;strokeColor=none;fillColor=none;fontSize=16;" vertex="1" parent="1">
          <mxGeometry x="645" y="2155.25" width="70" height="30" as="geometry" />
        </mxCell>
        <mxCell id="nSC51Si6mRJJ4zSDb2Nt-318" value="Compra" style="shape=rhombus;perimeter=rhombusPerimeter;whiteSpace=wrap;html=1;align=center;fontStyle=1;fontSize=16;" vertex="1" parent="1">
          <mxGeometry x="335" y="2050" width="120" height="60" as="geometry" />
        </mxCell>
        <mxCell id="nSC51Si6mRJJ4zSDb2Nt-319" value="Ex05" style="text;strokeColor=none;fillColor=none;html=1;fontSize=16;fontStyle=1;verticalAlign=middle;align=center;" vertex="1" parent="1">
          <mxGeometry x="5" y="1940" width="100" height="40" as="geometry" />
        </mxCell>
        <mxCell id="nSC51Si6mRJJ4zSDb2Nt-320" value="" style="triangle;whiteSpace=wrap;html=1;direction=north;fontSize=16;" vertex="1" parent="1">
          <mxGeometry x="140" y="2200" width="80" height="60" as="geometry" />
        </mxCell>
        <mxCell id="nSC51Si6mRJJ4zSDb2Nt-321" style="edgeStyle=orthogonalEdgeStyle;rounded=0;orthogonalLoop=1;jettySize=auto;html=1;endArrow=oval;endFill=1;fontSize=16;" edge="1" parent="1" source="nSC51Si6mRJJ4zSDb2Nt-323" target="nSC51Si6mRJJ4zSDb2Nt-327">
          <mxGeometry relative="1" as="geometry" />
        </mxCell>
        <mxCell id="nSC51Si6mRJJ4zSDb2Nt-322" style="edgeStyle=orthogonalEdgeStyle;rounded=0;orthogonalLoop=1;jettySize=auto;html=1;exitX=1;exitY=0;exitDx=0;exitDy=0;endArrow=none;endFill=0;fontSize=16;" edge="1" parent="1" source="nSC51Si6mRJJ4zSDb2Nt-323" target="nSC51Si6mRJJ4zSDb2Nt-320">
          <mxGeometry relative="1" as="geometry" />
        </mxCell>
        <mxCell id="nSC51Si6mRJJ4zSDb2Nt-323" value="Cliente" style="rounded=0;whiteSpace=wrap;html=1;fontSize=16;" vertex="1" parent="1">
          <mxGeometry y="2385" width="120" height="60" as="geometry" />
        </mxCell>
        <mxCell id="nSC51Si6mRJJ4zSDb2Nt-324" style="edgeStyle=orthogonalEdgeStyle;rounded=0;orthogonalLoop=1;jettySize=auto;html=1;endArrow=oval;endFill=1;fontSize=16;" edge="1" parent="1" source="nSC51Si6mRJJ4zSDb2Nt-326" target="nSC51Si6mRJJ4zSDb2Nt-328">
          <mxGeometry relative="1" as="geometry" />
        </mxCell>
        <mxCell id="nSC51Si6mRJJ4zSDb2Nt-325" style="edgeStyle=orthogonalEdgeStyle;rounded=0;orthogonalLoop=1;jettySize=auto;html=1;exitX=0;exitY=0;exitDx=0;exitDy=0;endArrow=none;endFill=0;fontSize=16;" edge="1" parent="1" source="nSC51Si6mRJJ4zSDb2Nt-326" target="nSC51Si6mRJJ4zSDb2Nt-320">
          <mxGeometry relative="1" as="geometry" />
        </mxCell>
        <mxCell id="nSC51Si6mRJJ4zSDb2Nt-326" value="Cliente" style="rounded=0;whiteSpace=wrap;html=1;fontSize=16;" vertex="1" parent="1">
          <mxGeometry x="240" y="2385" width="120" height="60" as="geometry" />
        </mxCell>
        <mxCell id="nSC51Si6mRJJ4zSDb2Nt-327" value="CPF" style="text;html=1;align=center;verticalAlign=middle;whiteSpace=wrap;rounded=0;fontSize=16;" vertex="1" parent="1">
          <mxGeometry x="30" y="2320" width="60" height="30" as="geometry" />
        </mxCell>
        <mxCell id="nSC51Si6mRJJ4zSDb2Nt-328" value="CNPJ" style="text;html=1;align=center;verticalAlign=middle;whiteSpace=wrap;rounded=0;fontSize=16;" vertex="1" parent="1">
          <mxGeometry x="270" y="2320" width="60" height="30" as="geometry" />
        </mxCell>
        <mxCell id="nSC51Si6mRJJ4zSDb2Nt-329" value="t" style="text;html=1;align=center;verticalAlign=middle;whiteSpace=wrap;rounded=0;fontSize=16;" vertex="1" parent="1">
          <mxGeometry x="185" y="2200" width="55" height="40" as="geometry" />
        </mxCell>
      </root>
    </mxGraphModel>
  </diagram>
</mxfile>
